<?xml version="1.0" encoding="iso-8859-1"?>
<!-- Generator: Adobe Illustrator 19.0.0, SVG Export Plug-In . SVG Version: 6.00 Build 0)  -->
<svg version="1.1" id="Capa_1" xmlns="http://www.w3.org/2000/svg" xmlns:xlink="http://www.w3.org/1999/xlink" x="0px" y="0px"
	 viewBox="0 0 512 512" style="enable-background:new 0 0 512 512;" xml:space="preserve">
<g>
	<g>
		<path d="M256,0C116.513,0,0,116.14,0,256c0,139.487,116.14,256,256,256c139.487,0,256-116.14,256-256C512,116.513,395.86,0,256,0z
			 M96.9,415.099C11.255,329.454,7.845,197.225,86.638,107.852l22.256,22.256C98.033,138.331,91,151.358,91,166v120
			c0,24.813,20.187,45,45,45h15v15c0,24.813,20.187,45,45,45h45v45c0,13.385,16.223,19.992,25.606,10.606L322.213,391h47.575
			l34.361,34.361C314.775,504.154,182.546,500.744,96.9,415.099z M121,286V166c0-6.423,4.065-11.9,9.753-14.034l38.142,38.142
			C158.033,198.331,151,211.358,151,226v75h-15C127.729,301,121,294.271,121,286z M256,361h-60c-8.271,0-15-6.729-15-15V226
			c0-6.423,4.066-11.9,9.753-14.034L339.787,361H316c-3.979,0-7.794,1.581-10.606,4.394L271,399.787V376
			C271,367.716,264.284,361,256,361z M232.213,211H376c8.271,0,15,6.729,15,15v120c0,6.423-4.065,11.9-9.752,14.034L232.213,211z
			 M331,181H202.213l-30-30H316c8.271,0,15,6.729,15,15V181z M425.362,404.148l-22.256-22.256C413.967,373.669,421,360.642,421,346
			V226c0-24.813-20.187-45-45-45h-15v-15c0-24.813-20.187-45-45-45H142.212l-34.361-34.361
			C197.226,7.846,329.453,11.256,415.1,96.901C500.745,182.547,504.155,314.775,425.362,404.148z"/>
	</g>
</g>
<g>
</g>
<g>
</g>
<g>
</g>
<g>
</g>
<g>
</g>
<g>
</g>
<g>
</g>
<g>
</g>
<g>
</g>
<g>
</g>
<g>
</g>
<g>
</g>
<g>
</g>
<g>
</g>
<g>
</g>
</svg>
